<svg xmlns="http://www.w3.org/2000/svg" width="512" height="512" viewBox="0 0 585.024 585.023"><path d="M584.129 437.893c-2.873-13.9-5.786-27.801-8.968-41.632-2.004-8.719-3.966-17.516-6.899-25.945-7.442-21.391-19.241-40.184-35.19-56.361-3.142-3.187-4.781-7.083-2.945-11.718.686-1.726 1.252-3.509 1.771-5.291 3.317-11.461 1.95-22.313-5.725-31.555-7.348-8.85-17.299-11.771-28.453-9.107-10.829 2.587-17.096 9.984-19.499 20.678-.697 3.113-.812 6.356-1.195 9.552-4.749.021-12.325-2.379-17.503-6.03-4.08-2.881-7.891-6.148-11.815-9.254-3.031-2.398-5.863-5.124-9.119-7.164-10.285-6.426-21.457-10.723-33.284-13.448-13.501-3.112-27.178-3.827-40.919-3.146-12.75.633-25.382 2.469-37.858 5.202-40.612 8.902-78.495 23.741-109.968 51.886-6.345 5.671-11.959 12.293-17.202 19.028-9.294 11.938-16.087 25.354-21.697 39.397-4.468 11.183-7.312 22.595-6.218 34.753.098 1.09-.114 2.252-.396 3.325l.62 1.126c-2.66 8.164-6.932 15.174-14.529 19.895-6.507 4.043-13.533 6.593-20.975 8.311-10.845 2.505-21.812 3.603-32.812 2.102-23.852-3.256-43.542-14.063-58.601-33.13-7.613-9.641-12.913-20.396-16.483-32.036-2.979-9.723-4.019-19.719-3.864-29.91.326-21.355 5.646-41.58 13.036-61.438 4.871-13.092 11.065-25.459 18.772-37.091 10.853-16.386 21.983-32.555 35.578-46.863 11.383-11.979 24.231-22.269 37.198-32.428 11.081-8.682 22.24-17.271 33.174-26.136 10.784-8.744 21.384-17.72 31.927-26.757 1.995-1.71 3.827-3.962 4.888-6.337 1.636-3.672-.551-6.263-4.521-5.695-1.914.273-3.917.828-5.578 1.783-5.128 2.949-10.318 5.867-15.107 9.314-20.314 14.618-40.601 29.282-60.674 44.223-10.89 8.104-21.673 16.414-31.873 25.354-7.315 6.41-13.978 13.681-20.229 21.155-7.785 9.314-15.3 18.923-22.114 28.959-13.644 20.099-24.692 41.543-31.767 64.93-5.937 19.625-8.299 39.629-6.544 60.009 1.167 13.513 3.411 26.952 8.335 39.682 3.325 8.597 7.923 16.524 14.1 23.579 14.158 16.173 31.216 28.095 51.09 36.092 2.811 1.13 5.675 2.129 8.515 3.19 4.978 1.134 9.955 2.269 14.937 3.402 5.234.375 10.461.959 15.7 1.094 14.284.363 27.98-2.371 41.017-8.295 5.545-2.521 11.036-5.178 16.65-7.536 6.512-2.741 13.174-4.684 20.151-4.202l.987 1.791c.596.118 1.171.522 1.673.902 13.219 10.045 28.185 15.275 44.692 16.319.849.054 1.815.213 2.488.669 6.218 4.264 13.235 6.704 20.245 9.233 10.032 3.615 20.4 4.027 30.882 3.737 10.881-.302 20.555 2.57 28.629 10.314 1.869 1.791 4.676 2.709 7.182 3.696 2.142.849 4.349 1.399 5.21 3.872.273.783.485 1.587.755 2.484 2.893-2.562 3.398-5.3.926-7.988-4.125-4.488-7.956-9.355-13.387-12.469-.514-.294-.995-.652-1.493-.979.049-.302.094-.6.143-.901 4.554.163 9.115.266 13.668.502 5.121.27 9.246 2.518 12.641 6.36 1.758 1.991 3.741 3.815 5.81 5.484 3.048 2.456 6.446 3.17 10.225 1.542.771-.335 1.881-.2 2.746.041 2.745.774 3.655 3.108 4.182 5.695 2.529-1.999 3.301-4.031 1.844-6.39-1.093-1.771-2.904-3.108-4.455-4.577-.624-.592-1.546-.894-2.093-1.534-2.244-2.619-4.395-5.316-6.581-7.989 2.081 1.44 3.9 3.175 5.594 5.019 1.656 1.812 3.26 3.627 5.912 3.905 4.308.448 8.262 1.383 8.792 6.85 2.692-2.289 3.08-4.247 1.763-7.042-1.159-2.452-3.15-3.811-5.602-4.68-.576-.204-1.294-.371-1.637-.804-2.811-3.517-5.549-7.095-8.185-10.494.311.005 1.11.037 1.91.017 9.592-.236 19.221-.062 28.768-.841 10.771-.877 21.473-2.635 32.212-3.94.592-.074 1.566.354 1.853.849 2.884 4.944 7.005 8.054 12.615 9.444 8.396 2.081 16.255 4.974 20.657 13.46 1.566 3.016 4.512 3.089 6.552.751-.763-.42-1.489-.824-2.138-1.183 2.836-5.19-1.163-8.854-2.803-13.016 3.831-.339 7.964 1.999 9.6 5.169.959 1.861 2.073 3.648 3.171 5.431.783 1.277 1.836 1.783 3.219.8 1.081-.771 2.158-1.542 3.239-2.317-.167-1.33.049-2.885-.575-3.949-1.48-2.538-3.357-4.848-5.075-7.246.167-.172.334-.343.502-.51 1.905 1.787 3.766 3.618 5.732 5.336 1.122.983 2.387 1.82 3.644 2.64.685.449 1.795.526 2.166 1.114.804 1.285 1.257 2.791 1.934 4.395 1.702-.511 2.559-1.95 2.139-3.893-.404-1.864-1.062-3.717-1.873-5.447-1.963-4.182-5.635-6.735-9.474-9.212 3.382-1.474 4.137-1.082 5.871 2.859 2.619-2.252 1.236-6.438-2.396-7.927-3.23-1.322-6.319-2.995-9.469-4.517.012-.27.028-.535.04-.804 8.76-.53 17.516-1.29 26.288-1.514 6.544-.168 12.848 1.722 18.678 4.562 8.426 4.108 16.532 8.927 25.603 11.538 8.311 2.395 16.173 1.812 22.823-4.529.51-.485 1.057-.926 1.53-1.338 4.332 2.117 7.923 1.562 10.689-2.146 1.383-1.853 2.513-4.288 2.696-6.548.262-3.138-.17-6.439-.819-9.572z" fill="#DE6C6C"/></svg>